<svg xmlns="http://www.w3.org/2000/svg" xmlns:xlink="http://www.w3.org/1999/xlink" width="500" zoomAndPan="magnify" viewBox="0 0 375 374.999991" height="500" preserveAspectRatio="xMidYMid meet" version="1.0"><defs><g/><clipPath id="d4e1a1cd2a"><path d="M 136.976562 99.707031 L 238.226562 99.707031 L 238.226562 222.707031 L 136.976562 222.707031 Z M 136.976562 99.707031 " clip-rule="nonzero"/></clipPath></defs><rect x="-37.5" width="450" fill="#ffffff" y="-37.499999" height="449.999989" fill-opacity="1"/><rect x="-37.5" width="450" fill="#ffb423" y="-37.499999" height="449.999989" fill-opacity="1"/><g clip-path="url(#d4e1a1cd2a)"><path fill="#000000" d="M 168.363281 189.3125 L 205.417969 189.3125 C 208.542969 189.3125 211.082031 191.847656 211.082031 194.972656 C 211.082031 198.027344 208.542969 200.5625 205.417969 200.5625 L 168.363281 200.5625 C 165.3125 200.5625 162.777344 198.027344 162.777344 194.972656 C 162.777344 191.824219 165.3125 189.3125 168.363281 189.3125 Z M 157.210938 180.671875 C 158.691406 182.148438 158.691406 184.511719 157.210938 185.988281 C 155.734375 187.464844 153.296875 187.464844 151.796875 185.988281 C 147.09375 181.285156 143.351562 175.695312 140.816406 169.589844 C 138.378906 163.511719 136.976562 156.960938 136.976562 150.339844 C 136.976562 136.378906 142.636719 123.75 151.796875 114.589844 C 160.953125 105.433594 173.585938 99.769531 187.542969 99.769531 C 201.40625 99.769531 214.035156 105.433594 223.191406 114.589844 C 232.351562 123.75 238.015625 136.378906 238.015625 150.339844 C 238.015625 156.960938 236.710938 163.511719 234.171875 169.617188 C 231.636719 175.722656 227.894531 181.308594 223.191406 186.011719 C 221.714844 187.488281 219.351562 187.488281 217.875 186.011719 C 216.300781 184.535156 216.300781 182.171875 217.875 180.695312 C 221.886719 176.609375 225.015625 171.882812 227.109375 166.734375 C 229.300781 161.589844 230.429688 156 230.429688 150.339844 C 230.429688 138.472656 225.628906 127.761719 217.875 120.007812 C 210.023438 112.253906 199.3125 107.378906 187.542969 107.378906 C 175.675781 107.378906 164.96875 112.253906 157.210938 120.007812 C 149.457031 127.761719 144.582031 138.496094 144.582031 150.339844 C 144.582031 156 145.714844 161.589844 147.90625 166.734375 C 149.972656 171.855469 153.101562 176.582031 157.210938 180.671875 Z M 187.542969 113.359375 C 207.855469 113.359375 224.425781 129.832031 224.425781 150.242188 C 224.425781 164.964844 215.78125 177.617188 203.421875 183.550781 L 203.421875 185.914062 L 200.101562 185.914062 L 200.101562 177.542969 C 201.578125 176.855469 202.636719 175.277344 202.636719 173.457031 C 202.636719 171.019531 200.640625 169 198.179688 169 C 195.71875 169 193.722656 170.996094 193.722656 173.457031 C 193.722656 175.277344 194.757812 176.855469 196.257812 177.542969 L 196.257812 185.914062 L 189.367188 185.914062 L 189.367188 171.707031 L 199.140625 162.035156 C 199.484375 162.132812 199.925781 162.132812 200.273438 162.132812 C 202.710938 162.132812 204.726562 160.136719 204.726562 157.675781 C 204.726562 155.140625 202.734375 153.144531 200.273438 153.144531 C 197.808594 153.144531 195.816406 155.140625 195.816406 157.675781 C 195.816406 158.363281 195.914062 158.980469 196.160156 159.597656 L 189.367188 166.390625 L 189.367188 154.007812 C 190.941406 153.21875 191.976562 151.742188 191.976562 149.921875 C 191.976562 147.484375 189.980469 145.464844 187.519531 145.464844 C 184.984375 145.464844 182.988281 147.457031 182.988281 149.921875 C 182.988281 151.742188 184.023438 153.242188 185.597656 154.007812 L 185.597656 185.914062 L 178.707031 185.914062 L 178.707031 166.835938 C 180.183594 166.144531 181.242188 164.570312 181.242188 162.820312 C 181.242188 160.382812 179.246094 158.363281 176.785156 158.363281 C 174.324219 158.363281 172.328125 160.359375 172.328125 162.820312 C 172.328125 164.570312 173.363281 166.144531 174.863281 166.835938 L 174.863281 185.914062 L 171.542969 185.914062 L 171.542969 183.550781 C 159.207031 177.617188 150.566406 164.988281 150.566406 150.242188 C 150.566406 129.855469 167.132812 113.359375 187.542969 113.359375 Z M 174.816406 204.207031 L 199.042969 204.207031 C 202.09375 204.207031 204.628906 206.742188 204.628906 209.796875 C 204.628906 212.921875 202.09375 215.457031 199.042969 215.457031 L 193.820312 215.457031 C 193.820312 215.628906 193.820312 213.980469 193.820312 215.976562 C 193.820312 217.96875 190.769531 222.867188 186.929688 222.867188 C 183.085938 222.867188 179.960938 217.992188 179.960938 215.976562 C 179.960938 213.980469 179.960938 215.628906 179.960938 215.457031 L 174.816406 215.457031 C 171.6875 215.457031 169.152344 212.921875 169.152344 209.796875 C 169.152344 206.742188 171.664062 204.207031 174.816406 204.207031 Z M 174.816406 204.207031 " fill-opacity="1" fill-rule="nonzero"/></g><g fill="#000000" fill-opacity="1"><g transform="translate(118.161493, 253.674139)"><g><path d="M 6.953125 0.15625 C 5.828125 0.15625 4.816406 -0.0234375 3.921875 -0.390625 C 3.023438 -0.765625 2.304688 -1.3125 1.765625 -2.03125 C 1.234375 -2.75 0.953125 -3.613281 0.921875 -4.625 L 4.921875 -4.625 C 4.984375 -4.050781 5.179688 -3.613281 5.515625 -3.3125 C 5.859375 -3.007812 6.300781 -2.859375 6.84375 -2.859375 C 7.394531 -2.859375 7.832031 -2.984375 8.15625 -3.234375 C 8.476562 -3.492188 8.640625 -3.851562 8.640625 -4.3125 C 8.640625 -4.695312 8.507812 -5.007812 8.25 -5.25 C 8 -5.5 7.6875 -5.703125 7.3125 -5.859375 C 6.9375 -6.023438 6.40625 -6.210938 5.71875 -6.421875 C 4.71875 -6.734375 3.898438 -7.039062 3.265625 -7.34375 C 2.640625 -7.65625 2.097656 -8.109375 1.640625 -8.703125 C 1.191406 -9.304688 0.96875 -10.09375 0.96875 -11.0625 C 0.96875 -12.5 1.488281 -13.625 2.53125 -14.4375 C 3.570312 -15.25 4.925781 -15.65625 6.59375 -15.65625 C 8.300781 -15.65625 9.675781 -15.25 10.71875 -14.4375 C 11.757812 -13.625 12.316406 -12.492188 12.390625 -11.046875 L 8.3125 -11.046875 C 8.28125 -11.546875 8.097656 -11.9375 7.765625 -12.21875 C 7.429688 -12.507812 7 -12.65625 6.46875 -12.65625 C 6.007812 -12.65625 5.640625 -12.53125 5.359375 -12.28125 C 5.085938 -12.039062 4.953125 -11.691406 4.953125 -11.234375 C 4.953125 -10.742188 5.1875 -10.359375 5.65625 -10.078125 C 6.125 -9.796875 6.859375 -9.492188 7.859375 -9.171875 C 8.847656 -8.835938 9.65625 -8.515625 10.28125 -8.203125 C 10.90625 -7.898438 11.441406 -7.453125 11.890625 -6.859375 C 12.347656 -6.273438 12.578125 -5.519531 12.578125 -4.59375 C 12.578125 -3.71875 12.351562 -2.921875 11.90625 -2.203125 C 11.457031 -1.484375 10.804688 -0.910156 9.953125 -0.484375 C 9.109375 -0.0546875 8.109375 0.15625 6.953125 0.15625 Z M 6.953125 0.15625 "/></g></g></g><g fill="#000000" fill-opacity="1"><g transform="translate(132.78909, 253.674139)"><g><path d="M 10.984375 -2.734375 L 5.21875 -2.734375 L 4.296875 0 L 0.359375 0 L 5.9375 -15.4375 L 10.296875 -15.4375 L 15.890625 0 L 11.90625 0 Z M 10.015625 -5.625 L 8.09375 -11.28125 L 6.203125 -5.625 Z M 10.015625 -5.625 "/></g></g></g><g fill="#000000" fill-opacity="1"><g transform="translate(150.100212, 253.674139)"><g><path d="M 18.859375 -15.4375 L 18.859375 0 L 15.09375 0 L 15.09375 -9.265625 L 11.640625 0 L 8.609375 0 L 5.125 -9.28125 L 5.125 0 L 1.359375 0 L 1.359375 -15.4375 L 5.8125 -15.4375 L 10.140625 -4.75 L 14.4375 -15.4375 Z M 18.859375 -15.4375 "/></g></g></g><g fill="#000000" fill-opacity="1"><g transform="translate(171.392618, 253.674139)"><g><path d="M 10.984375 -2.734375 L 5.21875 -2.734375 L 4.296875 0 L 0.359375 0 L 5.9375 -15.4375 L 10.296875 -15.4375 L 15.890625 0 L 11.90625 0 Z M 10.015625 -5.625 L 8.09375 -11.28125 L 6.203125 -5.625 Z M 10.015625 -5.625 "/></g></g></g><g fill="#000000" fill-opacity="1"><g transform="translate(188.70374, 253.674139)"><g><path d="M 7.15625 -15.4375 C 8.78125 -15.4375 10.203125 -15.113281 11.421875 -14.46875 C 12.640625 -13.832031 13.582031 -12.929688 14.25 -11.765625 C 14.914062 -10.597656 15.25 -9.25 15.25 -7.71875 C 15.25 -6.207031 14.914062 -4.863281 14.25 -3.6875 C 13.582031 -2.519531 12.632812 -1.613281 11.40625 -0.96875 C 10.175781 -0.320312 8.757812 0 7.15625 0 L 1.359375 0 L 1.359375 -15.4375 Z M 6.90625 -3.25 C 8.332031 -3.25 9.441406 -3.640625 10.234375 -4.421875 C 11.023438 -5.203125 11.421875 -6.300781 11.421875 -7.71875 C 11.421875 -9.144531 11.023438 -10.253906 10.234375 -11.046875 C 9.441406 -11.835938 8.332031 -12.234375 6.90625 -12.234375 L 5.125 -12.234375 L 5.125 -3.25 Z M 6.90625 -3.25 "/></g></g></g><g fill="#000000" fill-opacity="1"><g transform="translate(205.794895, 253.674139)"><g><path d="M 14.734375 -15.4375 L 14.734375 0 L 10.984375 0 L 10.984375 -6.359375 L 5.125 -6.359375 L 5.125 0 L 1.359375 0 L 1.359375 -15.4375 L 5.125 -15.4375 L 5.125 -9.390625 L 10.984375 -9.390625 L 10.984375 -15.4375 Z M 14.734375 -15.4375 "/></g></g></g><g fill="#000000" fill-opacity="1"><g transform="translate(222.974032, 253.674139)"><g><path d="M 10.984375 -2.734375 L 5.21875 -2.734375 L 4.296875 0 L 0.359375 0 L 5.9375 -15.4375 L 10.296875 -15.4375 L 15.890625 0 L 11.90625 0 Z M 10.015625 -5.625 L 8.09375 -11.28125 L 6.203125 -5.625 Z M 10.015625 -5.625 "/></g></g></g><g fill="#000000" fill-opacity="1"><g transform="translate(240.285154, 253.674139)"><g><path d="M 15.1875 0 L 11.421875 0 L 5.125 -9.53125 L 5.125 0 L 1.359375 0 L 1.359375 -15.4375 L 5.125 -15.4375 L 11.421875 -5.875 L 11.421875 -15.4375 L 15.1875 -15.4375 Z M 15.1875 0 "/></g></g></g></svg>